<svg xmlns="http://www.w3.org/2000/svg" width="871" height="266" viewBox="0 0 871 266" version="1.1">
	<path d="M 250.679 54.056 C 238.095 55.518, 220.783 61.966, 210.325 69.085 C 203.382 73.812, 191.495 85.505, 186.387 92.632 C 181.379 99.621, 174.879 113.644, 172.271 123.089 C 170.907 128.026, 170.500 133.293, 170.500 146 C 170.500 160.512, 170.783 163.404, 172.845 170 C 184.636 207.701, 213.864 232.417, 252.165 237.073 C 289.282 241.586, 328.216 219.870, 344.644 185.491 C 356.348 160.998, 356.281 129.302, 344.475 105.289 C 330.823 77.522, 303.101 57.959, 271.854 54.041 C 262.702 52.893, 260.667 52.895, 250.679 54.056 M 241.500 60.024 C 237.100 61.123, 228.325 64.578, 222 67.702 C 211.517 72.879, 209.616 74.270, 200.496 83.440 C 181.193 102.850, 172.967 123.932, 174.332 150.500 C 175.532 173.866, 184.516 192.805, 202.457 209.787 C 209.603 216.552, 213.078 218.952, 222.309 223.498 C 238.393 231.420, 243.263 232.507, 262.500 232.467 C 277.931 232.435, 278.838 232.318, 288 229.161 C 305.924 222.986, 319.428 213.723, 330.118 200.271 C 355.527 168.296, 355.578 122.768, 330.241 90.884 C 319.672 77.584, 305.405 67.746, 288.363 62.005 C 279.313 58.957, 277.305 58.656, 264 58.354 C 252.056 58.083, 248.090 58.377, 241.500 60.024 M 91.679 99.250 C 90.111 100.400, 89.996 104.083, 90.237 145.500 C 90.496 189.746, 90.534 190.500, 92.500 190.500 C 94.465 190.500, 94.505 189.746, 94.761 147.250 L 95.021 104 118.929 104 C 132.078 104, 143.548 103.727, 144.418 103.393 C 146.464 102.608, 146.464 99.392, 144.418 98.607 C 143.548 98.273, 131.709 98, 118.109 98 C 99.903 98, 92.933 98.330, 91.679 99.250 M 403.500 99.406 C 401.523 100.982, 401.522 101.017, 403.441 102.500 C 404.916 103.640, 408.229 104, 417.241 104 C 426.177 104, 429.888 104.398, 432.300 105.617 C 447.292 113.192, 448.537 133.825, 434.526 142.491 C 429.870 145.370, 429.098 145.515, 416.580 145.838 C 409.386 146.024, 403.148 146.511, 402.717 146.921 C 402.287 147.330, 402.222 148.416, 402.574 149.333 C 403.080 150.652, 404.601 151.008, 409.857 151.037 L 416.500 151.073 430.454 171.037 C 439.794 184.400, 445.001 191, 446.204 191 C 449.852 191, 447.765 186.803, 435.437 169.351 L 422.874 151.567 427.687 150.463 C 434.422 148.918, 437.962 146.850, 442.735 141.672 C 450.192 133.582, 451.556 123.083, 446.461 113 C 441.238 102.666, 433.702 98.893, 417.010 98.253 C 407.515 97.890, 405.150 98.091, 403.500 99.406 M 487.206 98.873 C 486.260 99.457, 486.039 110.023, 486.240 145.065 C 486.496 189.747, 486.533 190.500, 488.500 190.500 C 490.457 190.500, 490.511 189.667, 491 152.178 L 491.500 113.857 508.650 152.178 C 522.201 182.455, 526.186 190.500, 527.636 190.500 C 529.085 190.500, 533.052 182.516, 546.486 152.559 L 563.500 114.618 564.030 152.559 C 564.322 173.426, 564.659 190.613, 564.780 190.750 C 565.590 191.671, 568.894 190.717, 569.393 189.418 C 569.727 188.548, 570 168.384, 570 144.609 C 570 108.567, 569.761 101.060, 568.561 99.441 C 567.288 97.724, 566.961 97.673, 565.728 99 C 564.961 99.825, 556.308 118.500, 546.499 140.500 C 536.689 162.500, 528.381 180.836, 528.034 181.247 C 527.688 181.658, 519.116 163.520, 508.985 140.939 C 498.854 118.359, 490.085 99.485, 489.499 98.999 C 488.913 98.512, 487.881 98.456, 487.206 98.873 M 658.571 99.571 C 657.191 100.952, 657 106.417, 657 144.490 C 657 168.330, 657.273 188.548, 657.607 189.418 C 657.941 190.288, 659.018 191, 660 191 C 660.982 191, 662.059 190.288, 662.393 189.418 C 662.727 188.548, 663 168.973, 663 145.918 L 663 104 686.809 104 C 706.443 104, 710.958 103.737, 712.559 102.500 C 714.480 101.015, 714.480 100.985, 712.559 99.500 C 709.600 97.213, 660.865 97.278, 658.571 99.571 M 731.989 99.513 C 731.169 100.501, 731.081 101.419, 731.728 102.250 C 732.263 102.938, 740.184 113.703, 749.330 126.174 L 765.959 148.849 766.229 169.674 C 766.490 189.743, 766.573 190.500, 768.500 190.500 C 770.421 190.500, 770.520 189.667, 771 169.477 L 771.500 148.455 788.312 125.646 C 797.559 113.102, 805.342 102.272, 805.608 101.579 C 805.874 100.887, 805.443 99.783, 804.651 99.126 C 802.686 97.494, 802.675 97.507, 784.369 122.569 C 775.732 134.393, 768.341 143.714, 767.944 143.283 C 767.546 142.852, 760.170 132.828, 751.553 121.007 C 742.935 109.187, 735.286 99.180, 734.554 98.770 C 733.792 98.344, 732.696 98.662, 731.989 99.513 M 228.200 100.200 C 226.473 101.927, 226.473 189.073, 228.200 190.800 C 229.085 191.685, 238.014 192, 262.165 192 C 293.535 192, 294.974 191.918, 295.965 190.066 C 296.622 188.837, 297 175.283, 297 152.931 L 297 117.731 287.816 108.365 L 278.632 99 254.016 99 C 236.204 99, 229.068 99.332, 228.200 100.200 M 391.240 144.679 C 391.496 189.747, 391.533 190.500, 393.500 190.500 C 395.471 190.500, 395.500 189.833, 395.500 145 L 395.500 99.500 393.240 99.179 L 390.980 98.858 391.240 144.679 M 611.486 100.176 C 611.207 100.904, 611.096 121.525, 611.239 146 C 611.496 189.746, 611.534 190.500, 613.500 190.500 C 615.471 190.500, 615.500 189.833, 615.500 145.014 C 615.500 102.459, 615.387 99.506, 613.747 99.190 C 612.783 99.004, 611.765 99.448, 611.486 100.176 M 231 145.500 L 231 188 261.500 188 L 292 188 292 153.227 L 292 118.453 284.228 110.727 L 276.456 103 253.728 103 L 231 103 231 145.500 M 275.204 113.750 L 275.500 120.500 280.881 120.807 C 283.840 120.976, 286.939 120.854, 287.767 120.536 C 290.432 119.513, 286.232 116, 282.345 116 C 279.227 116, 279 115.776, 279 112.700 C 279 109.542, 277.553 107, 275.754 107 C 275.289 107, 275.042 110.037, 275.204 113.750 M 240.500 130 C 238.905 132.580, 241.924 133, 262.059 133 C 282.333 133, 283 132.936, 283 131 C 283 129.064, 282.333 129, 262.059 129 C 249.177 129, 240.880 129.385, 240.500 130 M 102.380 142.452 C 102.074 143.251, 102.114 144.376, 102.470 144.952 C 103.273 146.251, 141.859 146.375, 143.896 145.086 C 144.663 144.600, 145.015 143.481, 144.677 142.601 C 144.141 141.205, 141.432 141, 123.500 141 C 106.446 141, 102.842 141.248, 102.380 142.452 M 240.446 142.087 C 238.899 144.591, 242.447 145.032, 262.058 144.771 C 280.581 144.525, 282.505 144.338, 282.810 142.750 C 283.122 141.128, 281.607 141, 262.132 141 C 248.079 141, 240.895 141.360, 240.446 142.087 M 669.323 142.601 C 668.985 143.481, 669.337 144.605, 670.104 145.097 C 670.872 145.590, 680.500 145.882, 691.500 145.746 C 711.395 145.501, 711.502 145.488, 711.820 143.250 L 712.139 141 691.038 141 C 672.613 141, 669.859 141.203, 669.323 142.601 M 240.500 153 C 240.160 153.550, 240.160 154.450, 240.500 155 C 241.187 156.112, 282.227 156.440, 283.325 155.342 C 283.687 154.980, 283.481 154.080, 282.869 153.342 C 281.491 151.682, 241.514 151.359, 240.500 153 M 240.500 165 C 238.905 167.580, 241.924 168, 262.059 168 C 282.333 168, 283 167.936, 283 166 C 283 164.064, 282.333 164, 262.059 164 C 249.177 164, 240.880 164.385, 240.500 165" stroke="none" fill="#4caf50" fill-rule="evenodd"/>
</svg>