<svg xmlns="http://www.w3.org/2000/svg" width="203" height="206" viewBox="0 0 203 206" version="1.1">
	<path d="M 88.500 14.042 C 56.101 19.077, 28.157 40.452, 16.095 69.427 C 10.429 83.038, 8.809 91.034, 8.789 105.500 C 8.768 119.955, 10.353 127.781, 16.095 141.573 C 32.888 181.913, 78.841 205.461, 121 195.329 C 154.850 187.195, 181.037 161.955, 189.737 129.078 C 193.300 115.613, 193.452 96.537, 190.099 83.500 C 182.919 55.580, 163.080 32.018, 137.760 21.339 C 121.946 14.670, 102.755 11.827, 88.500 14.042 M 83.197 19.467 C 53.643 26.167, 30.711 45.522, 19.001 73.652 C 13.066 87.909, 11.622 109.920, 15.518 126.730 C 18.957 141.567, 28.415 157.361, 41.075 169.409 C 48.784 176.745, 51.832 178.861, 61.325 183.470 C 75.924 190.557, 81.797 192.051, 97.500 192.673 C 112.407 193.264, 120.095 192.026, 132.644 187.014 C 160.274 175.978, 180.423 152.074, 186.582 123.024 C 188.406 114.423, 188.372 96.900, 186.515 88.073 C 182.070 66.942, 168.331 45.562, 151.988 34.343 C 145.391 29.814, 132.495 23.551, 124.500 20.992 C 115.460 18.098, 92.908 17.266, 83.197 19.467 M 67.200 60.200 C 65.473 61.927, 65.473 149.073, 67.200 150.800 C 68.085 151.685, 77.014 152, 101.165 152 C 132.535 152, 133.974 151.918, 134.965 150.066 C 135.622 148.837, 136 135.241, 136 112.796 L 136 77.460 126.731 68.230 L 117.462 59 92.931 59 C 75.185 59, 68.068 59.332, 67.200 60.200 M 70.667 63.667 C 70.300 64.033, 70 83.158, 70 106.167 L 70 148 100.500 148 L 131 148 131 113.418 L 131 78.835 123.219 70.918 L 115.439 63 93.386 63 C 81.257 63, 71.033 63.300, 70.667 63.667 M 114.204 73.750 L 114.500 80.500 119.881 80.807 C 122.840 80.976, 125.939 80.854, 126.767 80.536 C 129.432 79.513, 125.232 76, 121.345 76 C 118.227 76, 118 75.776, 118 72.700 C 118 69.542, 116.553 67, 114.754 67 C 114.289 67, 114.042 70.037, 114.204 73.750 M 79.323 90.601 C 78.985 91.481, 79.337 92.600, 80.104 93.086 C 80.872 93.572, 90.076 93.976, 100.559 93.985 C 114.988 93.996, 120.066 93.672, 121.462 92.652 C 125.640 89.597, 122.282 89, 100.910 89 C 82.602 89, 79.859 89.203, 79.323 90.601 M 79.190 102.750 C 79.495 104.340, 81.442 104.525, 100.441 104.771 C 116.095 104.974, 121.546 104.734, 122.112 103.819 C 122.528 103.146, 122.646 102.237, 122.375 101.798 C 122.104 101.359, 112.201 101, 100.368 101 C 80.416 101, 78.878 101.127, 79.190 102.750 M 79.686 112.647 C 79.309 113.025, 79 113.942, 79 114.686 C 79 115.790, 83.002 115.989, 100.750 115.770 C 119.297 115.540, 122.500 115.279, 122.500 114 C 122.500 112.723, 119.373 112.460, 101.436 112.231 C 89.851 112.083, 80.063 112.270, 79.686 112.647 M 80.104 123.914 C 79.337 124.400, 78.985 125.519, 79.323 126.399 C 79.859 127.797, 82.602 128, 100.910 128 C 122.282 128, 125.640 127.403, 121.462 124.348 C 120.066 123.328, 114.988 123.004, 100.559 123.015 C 90.076 123.024, 80.872 123.428, 80.104 123.914" stroke="none" fill="#4caf50" fill-rule="evenodd"/>
</svg>