<svg xmlns="http://www.w3.org/2000/svg" width="1452" height="615" viewBox="0 0 1452 615" version="1.1">
	<path d="M 529.875 164.560 C 493.427 171.157, 465.857 196.896, 455.816 233.697 C 452.782 244.818, 452.782 266.182, 455.816 277.303 C 460.685 295.146, 469.993 311.119, 482.231 322.630 C 489.425 329.396, 499.601 336.492, 506.466 339.527 C 521.338 346.105, 543.456 349.348, 558 347.085 C 574.353 344.540, 591.800 337.387, 601.534 329.238 C 603.332 327.732, 606.689 324.978, 608.993 323.117 C 617.279 316.426, 629.614 297.257, 633.843 284.500 C 637.155 274.508, 638.618 256.812, 637.130 244.739 C 635.361 230.380, 634.373 226.731, 629.480 216.500 C 618.325 193.173, 599.167 176.045, 575.761 168.470 C 558.535 162.896, 545.298 161.768, 529.875 164.560 M 532.300 169.052 C 517.574 170.861, 498.330 180.619, 485.404 192.831 C 476.998 200.773, 468.457 213.258, 464.461 223.442 C 457.131 242.129, 457.417 272.219, 465.090 289.500 C 479.436 321.809, 511.493 343, 546.023 343 C 568.890 343, 590.641 333.659, 607.500 316.598 C 617.199 306.782, 622.313 298.967, 627.034 286.743 C 633.034 271.210, 634.637 253.913, 631.472 238.866 C 629.677 230.336, 624.382 216.909, 619.767 209.187 C 609.570 192.127, 587.389 175.974, 566.814 170.627 C 559.757 168.793, 541.273 167.949, 532.300 169.052 M 375.240 208.831 C 374.250 209.459, 374.035 219.381, 374.240 255.065 L 374.500 300.500 376.750 300.820 L 379 301.139 379 257.570 L 379 214 403.878 214 C 424.771 214, 428.954 213.760, 430 212.500 C 430.993 211.303, 430.993 210.697, 430 209.500 C 428.951 208.236, 424.645 208.002, 402.628 208.015 C 388.257 208.024, 375.933 208.391, 375.240 208.831 M 675.035 209.934 C 673.763 212.311, 673.621 297.853, 674.885 299.848 C 675.355 300.590, 676.586 301.034, 677.620 300.835 C 679.423 300.488, 679.511 298.602, 679.760 255.052 C 680.021 209.525, 679.930 208.083, 676.785 208.015 C 676.392 208.007, 675.605 208.870, 675.035 209.934 M 687.250 208.662 C 685.470 209.380, 685.701 212.671, 687.582 213.393 C 688.452 213.727, 694.456 214, 700.925 214 C 711.307 214, 713.202 214.273, 717.093 216.327 C 732.352 224.383, 731.166 247.408, 715.139 254.263 C 713.688 254.883, 706.650 255.641, 699.500 255.946 C 687.351 256.464, 686.500 256.631, 686.500 258.500 C 686.500 260.257, 687.333 260.561, 693.368 261 L 700.236 261.500 713.979 281 C 727.039 299.530, 730.229 302.866, 732.060 299.902 C 733.121 298.185, 732.878 297.780, 719.085 278.329 L 707.169 261.524 712.481 260.464 C 726.920 257.581, 736.245 243.609, 733.102 229.566 C 730.764 219.116, 723.001 211.238, 712.911 209.074 C 707.909 208.002, 689.616 207.708, 687.250 208.662 M 770.701 208.632 C 770.316 209.018, 770 229.990, 770 255.236 L 770 301.139 772.250 300.820 L 774.500 300.500 774.772 262 L 775.044 223.500 792.315 262 C 805.933 292.353, 810.005 300.561, 811.561 300.789 C 813.260 301.038, 815.904 295.781, 830.517 263.106 L 847.500 225.133 848 262.817 L 848.500 300.500 851 300.500 L 853.500 300.500 853.760 255.615 C 854.023 210.429, 853.858 208, 850.540 208 C 849.871 208, 841.104 226.338, 831.056 248.750 C 821.009 271.163, 812.456 289.857, 812.050 290.294 C 811.644 290.731, 802.959 272.506, 792.749 249.794 C 782.540 227.082, 773.561 208.372, 772.795 208.215 C 772.029 208.059, 771.087 208.246, 770.701 208.632 M 896.250 208.731 C 895.274 209.071, 895 219.249, 895 255.083 L 895 301 897.500 301 L 900 301 900 255.107 C 900 207.960, 899.958 207.437, 896.250 208.731 M 942.112 209.365 C 941.297 210.347, 941.052 223.307, 941.240 255.615 L 941.500 300.500 944 300.500 L 946.500 300.500 946.761 257.250 L 947.021 214 970.929 214 C 984.078 214, 995.548 213.727, 996.418 213.393 C 997.288 213.059, 998 211.982, 998 211 C 998 210.018, 997.288 208.941, 996.418 208.607 C 995.548 208.273, 983.228 208, 969.041 208 C 948.465 208, 943.016 208.276, 942.112 209.365 M 1015.701 208.632 C 1015.316 209.018, 1015 209.912, 1015 210.620 C 1015 211.328, 1022.763 222.390, 1032.250 235.204 L 1049.500 258.500 1050 279.500 C 1050.496 300.344, 1050.517 300.502, 1052.750 300.820 L 1055 301.139 1055 280.437 L 1055 259.736 1072.570 235.849 C 1082.918 221.781, 1090.002 211.251, 1089.806 210.231 C 1089.623 209.279, 1088.605 208.500, 1087.545 208.500 C 1086.187 208.500, 1080.851 215.010, 1069.511 230.500 C 1060.653 242.600, 1053.005 252.450, 1052.515 252.388 C 1052.025 252.327, 1044.379 242.430, 1035.524 230.395 C 1020.592 210.101, 1017.560 206.773, 1015.701 208.632 M 511.035 210.934 C 510.368 212.181, 510 228.025, 510 255.500 C 510 282.975, 510.368 298.819, 511.035 300.066 C 512.027 301.919, 513.471 302, 545.335 302 C 569.874 302, 578.915 301.685, 579.800 300.800 C 580.689 299.911, 581 290.192, 581 263.264 L 581 226.929 572.179 217.964 L 563.359 209 537.715 209 C 513.384 209, 512.017 209.099, 511.035 210.934 M 516 255.500 L 516 297 546 297 L 576 297 576 263.385 L 576 229.770 568.327 221.885 L 560.653 214 538.327 214 L 516 214 516 255.500 M 558.458 217.249 C 558.147 218.060, 558.029 221.374, 558.196 224.612 L 558.500 230.500 565.750 230.794 C 569.737 230.955, 573 230.813, 573 230.478 C 573 227.952, 570.587 226, 567.465 226 C 564.355 226, 563.998 225.718, 563.985 223.250 C 563.968 220.262, 563.419 219.220, 560.762 217.137 C 559.284 215.979, 558.939 215.996, 558.458 217.249 M 525.152 238.885 C 524.410 239.355, 523.966 240.586, 524.165 241.620 C 524.506 243.390, 525.779 243.500, 546 243.500 C 566.221 243.500, 567.494 243.390, 567.835 241.620 C 568.034 240.586, 567.590 239.355, 566.848 238.885 C 566.107 238.415, 556.725 238.031, 546 238.031 C 535.275 238.031, 525.893 238.415, 525.152 238.885 M 524.686 250.647 C 524.309 251.025, 524 252.167, 524 253.186 C 524 254.941, 525.146 255.025, 545.750 254.770 C 566.743 254.509, 567.500 254.430, 567.500 252.500 C 567.500 250.572, 566.744 250.490, 546.436 250.231 C 534.851 250.083, 525.063 250.270, 524.686 250.647 M 385.666 252.427 C 384.453 255.588, 387.525 256.045, 408.128 255.771 C 428.400 255.501, 428.502 255.489, 428.820 253.250 L 429.139 251 407.677 251 C 390.010 251, 386.117 251.252, 385.666 252.427 M 953.180 253.250 C 953.498 255.489, 953.600 255.501, 973.872 255.771 C 994.475 256.045, 997.547 255.588, 996.334 252.427 C 995.883 251.252, 991.990 251, 974.323 251 L 952.861 251 953.180 253.250 M 524.323 263.601 C 523.985 264.481, 524.337 265.600, 525.104 266.086 C 525.872 266.572, 535.275 266.969, 546 266.969 C 556.725 266.969, 566.128 266.572, 566.896 266.086 C 567.663 265.600, 568.015 264.481, 567.677 263.601 C 567.141 262.203, 564.390 262, 546 262 C 527.610 262, 524.859 262.203, 524.323 263.601 M 524.369 274.480 C 524.048 275.316, 524.045 276.675, 524.362 277.500 C 524.847 278.766, 528.104 278.998, 545.219 278.985 C 556.373 278.976, 566.107 278.585, 566.848 278.115 C 567.590 277.645, 568.034 276.414, 567.835 275.380 C 567.497 273.621, 566.111 273.483, 546.213 273.230 C 527.946 272.998, 524.870 273.174, 524.369 274.480 M 283 436 L 283 445 288.826 445 C 295.478 445, 298.484 442.831, 299.605 437.223 C 300.151 434.494, 299.741 433.541, 296.721 430.521 C 293.614 427.414, 292.601 427, 288.100 427 L 283 427 283 436 M 299.892 428.750 C 300.422 429.712, 302.013 432.050, 303.428 433.944 C 305.137 436.233, 306 438.666, 306 441.194 C 306 443.910, 306.429 445, 307.500 445 C 308.553 445, 309 443.937, 309 441.430 C 309 439.029, 310.064 436.328, 312.250 433.180 L 315.500 428.500 315.790 436.750 C 316.012 443.056, 316.414 445, 317.495 445 C 318.544 445, 318.985 443.266, 319.204 438.285 L 319.500 431.570 324 438.254 C 328.367 444.739, 328.626 444.938, 332.781 444.968 C 335.687 444.990, 337.248 444.518, 337.638 443.500 C 338.039 442.456, 339.668 442, 343 442 C 346.332 442, 347.961 442.456, 348.362 443.500 C 348.721 444.436, 350.247 445, 352.423 445 L 355.909 445 356.204 438.444 L 356.500 431.888 359.640 435.982 L 362.779 440.076 366.390 435.858 L 370 431.640 370 438.320 C 370 443.591, 370.316 445, 371.500 445 C 372.722 445, 373 443.333, 373 436 C 373 427.985, 372.802 427, 371.192 427 C 370.197 427, 368.060 428.789, 366.442 430.976 C 364.824 433.163, 363.275 434.953, 363 434.953 C 362.725 434.953, 361.176 433.163, 359.558 430.976 C 357.940 428.789, 355.803 427, 354.808 427 C 353.209 427, 352.990 428.009, 352.910 435.750 L 352.820 444.500 348.660 435.768 C 346.161 430.522, 343.901 427.036, 343 427.036 C 342.099 427.036, 339.839 430.522, 337.340 435.768 L 333.180 444.500 333.090 435.750 C 333.019 428.802, 332.700 427, 331.546 427 C 330.447 427, 330.019 428.642, 329.796 433.715 L 329.500 440.430 325 433.746 C 320.642 427.274, 320.366 427.062, 316.250 427.032 C 313.913 427.014, 311.984 427.337, 311.964 427.750 C 311.944 428.163, 310.882 429.779, 309.603 431.342 L 307.277 434.185 305.057 430.592 C 303.735 428.453, 302.047 427, 300.883 427 C 299.323 427, 299.123 427.352, 299.892 428.750 M 375 436.583 C 375 443.804, 375.308 446.065, 376.250 445.752 C 377.100 445.471, 377.592 442.401, 377.788 436.169 C 378.029 428.461, 377.830 427, 376.538 427 C 375.261 427, 375 428.628, 375 436.583 M 382.077 429.589 C 373.316 436.961, 384.136 450.193, 394.145 444.347 C 395.902 443.321, 397.526 441.923, 397.753 441.241 C 398.320 439.540, 394.942 439.729, 392.559 441.532 C 389.904 443.540, 387.746 443.375, 384.635 440.927 C 379.238 436.682, 382.962 428.961, 389.748 430.326 C 391.262 430.630, 393.850 431.163, 395.500 431.510 L 398.500 432.141 395.694 429.571 C 391.857 426.055, 386.267 426.063, 382.077 429.589 M 408 435.952 C 408 443.328, 408.277 445, 409.500 445 C 410.583 445, 411 443.889, 411 441 L 411 437 416 437 C 420.256 437, 421 437.284, 421 438.911 C 421 441.908, 426.585 446, 430.677 446 C 435.440 446, 441 440.626, 441 436.023 C 441 431.271, 436.340 427, 431.154 427 C 426.905 427, 421 430.832, 421 433.589 C 421 434.616, 419.638 435, 416 435 C 411.363 435, 411 434.822, 411 432.555 C 411 430.347, 411.461 430.080, 415.750 429.805 C 422.627 429.363, 421.583 427.552, 414.250 427.202 L 408 426.905 408 435.952 M 442 436 C 442 443.333, 442.278 445, 443.500 445 C 444.548 445, 445 443.944, 445 441.500 C 445 438.716, 445.393 438, 446.918 438 C 448.032 438, 449.744 439.468, 451 441.500 C 452.790 444.396, 453.753 445, 456.582 445 L 460 445 460.045 438.250 L 460.090 431.500 463.682 435.759 L 467.273 440.017 470.595 436.259 L 473.917 432.500 473.958 438.750 C 473.991 443.620, 474.331 445, 475.500 445 C 476.722 445, 477 443.333, 477 436 C 477 425.439, 476.066 424.713, 470.735 431.130 L 467.304 435.261 463.985 431.130 C 462.159 428.859, 459.858 427, 458.872 427 C 457.305 427, 457.041 428.109, 456.789 435.748 L 456.500 444.496 454.372 441.126 C 452.289 437.829, 452.284 437.716, 454.122 435.878 C 458.365 431.635, 454.647 427, 447 427 L 442 427 442 436 M 492.302 428.012 C 489.857 428.997, 487 433.804, 487 436.935 C 487 438.053, 488.273 440.393, 489.829 442.134 C 492.197 444.784, 493.414 445.316, 497.305 445.400 C 501.118 445.482, 502.448 445.006, 504.704 442.750 C 507.175 440.280, 507.253 440.003, 505.477 440.032 C 504.390 440.049, 502.626 440.724, 501.559 441.532 C 499.050 443.429, 496.012 443.397, 493.223 441.443 C 490.421 439.481, 490.201 434.033, 492.829 431.655 C 494.834 429.840, 500.518 429.411, 501.500 431 C 502.264 432.236, 506 432.331, 506 431.115 C 506 430.628, 504.891 429.503, 503.535 428.615 C 500.869 426.868, 495.816 426.597, 492.302 428.012 M 508 436 C 508 443.333, 508.278 445, 509.500 445 C 510.548 445, 511 443.944, 511 441.500 C 511 436.815, 513.720 436.821, 516.759 441.512 C 518.002 443.431, 519.734 445, 520.608 445 C 521.960 445, 521.877 444.457, 520.058 441.374 C 518.121 438.091, 518.065 437.586, 519.459 436.045 C 523.399 431.692, 519.878 427, 512.671 427 L 508 427 508 436 M 523 435.952 L 523 445 531.031 445 C 537.248 445, 539.193 444.661, 539.638 443.500 C 540.042 442.448, 541.684 442, 545.138 442 C 548.593 442, 550.235 442.448, 550.638 443.500 C 550.955 444.325, 552.030 445, 553.028 445 C 554.609 445, 554.314 443.847, 550.730 436 C 548.090 430.219, 546.062 427.008, 545.060 427.023 C 544.080 427.037, 542.199 430.003, 540 435 L 536.500 442.954 531.250 442.977 C 526.078 443, 526 442.955, 526 440 C 526 437.111, 526.167 437, 530.500 437 C 532.975 437, 535 436.550, 535 436 C 535 435.450, 532.975 435, 530.500 435 C 526.394 435, 526 434.786, 526 432.555 C 526 430.347, 526.461 430.080, 530.750 429.805 C 537.627 429.363, 536.583 427.552, 529.250 427.202 L 523 426.905 523 435.952 M 554 428.500 C 554 429.500, 555 430, 557 430 L 560 430 560 437.500 C 560 443.500, 560.300 445, 561.500 445 C 562.700 445, 563 443.500, 563 437.500 L 563 430 566.500 430 L 570 430 570 438 C 570 444.444, 570.292 446, 571.500 446 C 572.728 446, 573 444.278, 573 436.500 L 573 427 563.500 427 C 555.722 427, 554 427.272, 554 428.500 M 576.923 429.923 C 569.914 436.932, 576.323 447.475, 586.440 445.577 C 594.035 444.152, 596.745 434.488, 590.923 429.589 C 586.510 425.876, 580.835 426.011, 576.923 429.923 M 595 436 C 595 443.208, 595.290 445, 596.454 445 C 597.550 445, 597.982 443.372, 598.204 438.395 L 598.500 431.790 603.245 438.395 C 606.382 442.762, 608.669 445, 609.995 445 C 611.853 445, 612 444.341, 612 436 C 612 428.792, 611.710 427, 610.546 427 C 609.447 427, 609.019 428.642, 608.796 433.715 L 608.500 440.430 604 433.746 C 600.712 428.863, 598.894 427.055, 597.250 427.032 C 595.081 427.001, 595 427.324, 595 436 M 623 436 C 623 443.333, 623.278 445, 624.500 445 C 625.682 445, 626 443.601, 626 438.405 L 626 431.811 629.419 435.903 L 632.838 439.995 636.399 435.748 L 639.961 431.500 639.980 438.250 L 640 445 643.393 445 C 645.487 445, 647.006 444.426, 647.362 443.500 C 647.765 442.448, 649.407 442, 652.862 442 C 656.316 442, 657.958 442.448, 658.362 443.500 C 658.876 444.841, 662 445.715, 662 444.518 C 662 442.400, 653.829 427, 652.705 427 C 651.893 427, 649.530 430.757, 647.203 435.750 L 643.124 444.500 643.062 435.750 C 642.988 425.346, 641.712 424.500, 636.027 431.087 L 632.500 435.174 629.500 431.111 C 627.850 428.876, 625.712 427.037, 624.750 427.024 C 623.211 427.003, 623 428.086, 623 436 M 663 436 L 663 445 668.066 445 C 674.322 445, 676.765 443.757, 678.542 439.671 L 679.922 436.500 679.961 440.750 L 680 445 687 445 C 691 445, 694 444.571, 694 444 C 694 443.450, 691.750 443, 689 443 C 684.111 443, 684 442.933, 684 440 C 684 437.111, 684.167 437, 688.500 437 C 690.975 437, 693 436.550, 693 436 C 693 435.450, 690.975 435, 688.500 435 C 684.367 435, 684 434.796, 684 432.500 C 684 430.204, 684.367 430, 688.500 430 C 691.833 430, 693 429.611, 693 428.500 C 693 427.321, 691.611 427, 686.500 427 L 680 427 679.864 431.750 C 679.789 434.363, 679.535 435.503, 679.299 434.284 C 678.519 430.258, 673.432 427, 667.923 427 L 663 427 663 436 M 703 436 L 703 445 711.393 445 C 717.931 445, 719.913 444.668, 720.362 443.500 C 721.188 441.347, 730.556 441.402, 731.386 443.564 C 731.716 444.424, 732.777 445.026, 733.743 444.901 C 734.709 444.776, 737.189 445.023, 739.254 445.449 C 743.836 446.395, 748.008 444.138, 747.985 440.727 C 747.963 437.508, 746.971 436.443, 742.695 435.049 C 740.021 434.177, 738.992 433.317, 739.234 432.154 C 739.489 430.923, 740.525 430.556, 743.289 430.720 C 747.651 430.979, 748.583 428.435, 744.500 427.411 C 739.077 426.050, 734.105 429.604, 735.460 433.873 C 735.774 434.862, 737.888 436.533, 740.159 437.586 C 744.603 439.646, 745.208 440.836, 742.638 442.456 C 741.480 443.187, 740.404 443.109, 738.925 442.185 C 737.460 441.270, 736.471 441.194, 735.585 441.929 C 734.625 442.726, 733.478 441.084, 730.736 434.987 C 728.701 430.463, 726.531 427, 725.730 427 C 724.941 427, 722.654 430.541, 720.561 435 L 716.807 443 711.404 443 C 706.066 443, 706 442.963, 706 440 C 706 437.062, 706.105 437, 711.059 437 C 714.177 437, 715.881 436.616, 715.500 436 C 715.160 435.450, 712.884 435, 710.441 435 C 706.371 435, 706 434.791, 706 432.500 C 706 430.167, 706.333 430, 711 430 C 714.778 430, 716 429.633, 716 428.500 C 716 427.321, 714.611 427, 709.500 427 L 703 427 703 436 M 748 427.822 C 748 428.274, 749.337 430.411, 750.972 432.572 C 753.166 435.472, 753.952 437.612, 753.972 440.750 C 753.992 443.849, 754.406 445, 755.500 445 C 756.527 445, 757 443.971, 757 441.737 C 757 439.664, 758.277 436.577, 760.500 433.276 C 762.425 430.418, 764 427.836, 764 427.539 C 764 425.931, 761.148 427.399, 758.750 430.241 L 756 433.500 753.250 430.241 C 750.677 427.191, 748 425.958, 748 427.822 M 776.216 436 C 772.614 443.907, 772.339 445, 773.951 445 C 774.960 445, 776.045 444.325, 776.362 443.500 C 776.765 442.448, 778.407 442, 781.862 442 C 785.316 442, 786.958 442.448, 787.362 443.500 C 787.906 444.919, 791 445.682, 791 444.397 C 791 442.247, 782.869 427, 781.722 427 C 780.921 427, 778.551 430.872, 776.216 436 M 792 436 C 792 443.333, 792.278 445, 793.500 445 C 794.684 445, 795 443.589, 795 438.305 L 795 431.610 799.623 438.305 C 803.134 443.391, 804.816 445, 806.623 445 C 808.950 445, 809 444.810, 809 436 C 809 428.787, 808.711 427, 807.544 427 C 806.432 427, 806.018 428.689, 805.794 434.135 L 805.500 441.271 800.587 434.135 C 797.506 429.661, 794.989 427, 793.837 427 C 792.190 427, 792 427.933, 792 436 M 810 436 L 810 445 815.811 445 C 822.216 445, 825.449 443.043, 826.596 438.472 C 828.235 431.941, 823.142 427.010, 814.750 427.004 L 810 427 810 436 M 839.935 435.518 C 837.771 440.203, 836 444.253, 836 444.518 C 836 445.715, 839.124 444.841, 839.638 443.500 C 840.468 441.338, 849.577 441.422, 850.798 443.603 C 851.291 444.484, 852.382 445.047, 853.223 444.853 C 854.463 444.567, 853.993 442.846, 850.735 435.750 C 848.430 430.728, 846.112 427, 845.295 427 C 844.482 427, 842.180 430.659, 839.935 435.518 M 857.849 429.844 C 852.231 434.864, 854.345 442.825, 861.898 445.088 C 865.248 446.091, 866.345 445.990, 869.598 444.379 C 871.684 443.346, 873.566 441.938, 873.779 441.250 C 874.308 439.545, 870.946 439.726, 868.559 441.532 C 865.904 443.540, 863.746 443.375, 860.635 440.927 C 857.270 438.281, 857.071 433.764, 860.223 431.557 C 862.723 429.805, 867.561 429.480, 868.500 431 C 868.840 431.550, 870.329 431.986, 871.809 431.968 L 874.500 431.937 871.694 429.468 C 867.680 425.937, 862.050 426.090, 857.849 429.844 M 879.357 427.992 C 873.617 430.308, 872.434 437.216, 876.918 442.234 C 879.395 445.006, 880.517 445.500, 884.337 445.500 C 887.725 445.500, 889.477 444.900, 891.419 443.076 L 894 440.651 894 442.878 C 894 444.991, 894.394 445.102, 901.750 445.069 C 906.013 445.050, 911.143 445.296, 913.152 445.615 C 916.053 446.077, 917.248 445.752, 918.964 444.036 C 922.292 440.708, 921.263 437.865, 915.783 435.246 C 912.295 433.579, 911.226 432.575, 911.680 431.392 C 912.158 430.147, 913.149 429.928, 916.147 430.408 C 919.082 430.877, 920 430.689, 920 429.619 C 920 426.508, 912.200 426.016, 909.536 428.960 C 906.782 432.004, 908.201 435.463, 912.991 437.380 C 917.127 439.035, 918.265 441.577, 915.368 442.689 C 914.470 443.034, 912.842 442.758, 911.750 442.076 C 910.326 441.186, 909.458 441.142, 908.682 441.918 C 908.087 442.513, 905.440 443, 902.800 443 C 898.133 443, 898 442.917, 898 440 C 898 437.111, 898.167 437, 902.500 437 C 904.975 437, 907 436.550, 907 436 C 907 435.450, 904.975 435, 902.500 435 C 898.367 435, 898 434.796, 898 432.500 C 898 430.204, 898.367 430, 902.500 430 C 905.833 430, 907 429.611, 907 428.500 C 907 427.321, 905.611 427, 900.500 427 L 894 427 894 433.500 C 894 438.446, 893.661 440, 892.581 440 C 891.801 440, 889.812 440.775, 888.162 441.722 C 884.303 443.936, 880.064 442.621, 878.143 438.612 C 876.929 436.080, 876.994 435.483, 878.739 433.135 C 880.849 430.296, 886.414 429.014, 888.327 430.927 C 889.667 432.267, 893 432.337, 893 431.026 C 893 429.527, 887.434 426.992, 884.300 427.063 C 882.760 427.098, 880.536 427.516, 879.357 427.992 M 923 429 C 921.900 430.100, 921 431.364, 921 431.809 C 921 433.525, 923.842 436.375, 927.079 437.903 C 930.690 439.608, 931.111 440.896, 928.581 442.493 C 927.513 443.166, 926.415 443.116, 925.164 442.334 C 923.118 441.057, 920.367 442.167, 921.407 443.849 C 922.666 445.886, 928.835 446.338, 931.504 444.589 C 935.123 442.218, 934.981 437.344, 931.250 435.872 C 926.458 433.980, 925.500 433.317, 925.500 431.891 C 925.500 430.985, 926.719 430.469, 929 430.412 C 934.276 430.280, 934.670 430.065, 932.559 428.468 C 929.821 426.397, 925.354 426.646, 923 429 M 935 436.500 C 935 444.278, 935.272 446, 936.500 446 C 937.728 446, 938 444.278, 938 436.500 C 938 428.722, 937.728 427, 936.500 427 C 935.272 427, 935 428.722, 935 436.500 M 940 436 L 940 445 945.750 444.985 C 948.913 444.976, 952.119 444.577, 952.875 444.098 C 954.494 443.073, 954.707 438.307, 953.202 436.802 C 952.472 436.072, 952.499 434.999, 953.291 433.260 C 954.949 429.621, 951.431 427, 944.889 427 L 940 427 940 436 M 956 436 L 956 445 969 445 C 977 445, 982 444.615, 982 444 C 982 443.450, 979.750 443, 977 443 C 972.111 443, 972 442.933, 972 440 C 972 437.111, 972.167 437, 976.500 437 C 978.975 437, 981 436.550, 981 436 C 981 435.450, 978.975 435, 976.500 435 C 972.367 435, 972 434.796, 972 432.500 C 972 430.204, 972.367 430, 976.500 430 C 979.833 430, 981 429.611, 981 428.500 C 981 427.321, 979.611 427, 974.500 427 L 968 427 968 435 L 968 443 963.500 443 L 959 443 959 435 C 959 428.556, 958.708 427, 957.500 427 C 956.278 427, 956 428.667, 956 436 M 991 436 C 991 443.333, 991.278 445, 992.500 445 C 993.583 445, 994 443.889, 994 441 L 994 437 998.933 437 C 1002.950 437, 1003.980 437.363, 1004.486 438.956 C 1005.539 442.274, 1010.836 446, 1014.500 446 C 1018.395 446, 1023.644 442.098, 1024.299 438.716 C 1024.535 437.497, 1024.789 438.413, 1024.864 440.750 C 1024.977 444.288, 1025.335 445, 1027 445 C 1028.619 445, 1029 444.333, 1029 441.500 C 1029 436.815, 1031.720 436.821, 1034.759 441.512 C 1036.002 443.431, 1037.734 445, 1038.608 445 C 1039.960 445, 1039.877 444.457, 1038.058 441.374 C 1036.121 438.091, 1036.065 437.586, 1037.459 436.045 C 1041.566 431.508, 1037.726 426.722, 1030.356 427.191 C 1025.526 427.498, 1025.497 427.522, 1024.892 431.500 C 1024.557 433.700, 1024.220 434.753, 1024.142 433.839 C 1024.064 432.925, 1022.615 431.013, 1020.923 429.589 C 1016.510 425.876, 1010.835 426.011, 1006.923 429.923 C 1005.315 431.531, 1004 433.443, 1004.001 434.173 C 1004.001 435.145, 1002.663 435.407, 999.001 435.153 C 994.483 434.840, 994 434.575, 994 432.403 C 994 430.186, 994.387 430, 999 430 C 1002.778 430, 1004 429.633, 1004 428.500 C 1004 427.321, 1002.611 427, 997.500 427 L 991 427 991 436 M 1050 436 L 1050 445 1056.500 445 C 1060.167 445, 1063 444.564, 1063 444 C 1063 443.450, 1060.750 443, 1058 443 C 1053.111 443, 1053 442.933, 1053 440 C 1053 437.111, 1053.167 437, 1057.500 437 C 1059.975 437, 1062 436.550, 1062 436 C 1062 435.450, 1059.975 435, 1057.500 435 C 1053.367 435, 1053 434.796, 1053 432.500 C 1053 430.204, 1053.367 430, 1057.500 430 C 1060.833 430, 1062 429.611, 1062 428.500 C 1062 427.333, 1060.667 427, 1056 427 L 1050 427 1050 436 M 1063 427.936 C 1063 428.451, 1064.420 432.501, 1066.156 436.936 C 1068.269 442.333, 1069.840 444.999, 1070.906 444.996 C 1071.977 444.994, 1073.602 442.187, 1075.860 436.440 C 1077.708 431.736, 1078.965 427.632, 1078.653 427.320 C 1077.247 425.913, 1075.348 428.194, 1073.570 433.425 C 1071.785 438.678, 1070 441.513, 1070 439.097 C 1070 436.347, 1065.694 427, 1064.428 427 C 1063.643 427, 1063 427.421, 1063 427.936 M 1080 436 L 1080 445 1086.500 445 C 1090.167 445, 1093 444.564, 1093 444 C 1093 443.450, 1090.750 443, 1088 443 C 1083.111 443, 1083 442.933, 1083 440 C 1083 437.111, 1083.167 437, 1087.500 437 C 1089.975 437, 1092 436.550, 1092 436 C 1092 435.450, 1089.975 435, 1087.500 435 C 1083.367 435, 1083 434.796, 1083 432.500 C 1083 430.204, 1083.367 430, 1087.500 430 C 1090.833 430, 1092 429.611, 1092 428.500 C 1092 427.333, 1090.667 427, 1086 427 L 1080 427 1080 436 M 1094 436 C 1094 443.333, 1094.278 445, 1095.500 445 C 1096.548 445, 1097 443.944, 1097 441.500 C 1097 436.815, 1099.720 436.821, 1102.759 441.512 C 1104.002 443.431, 1105.689 445, 1106.509 445 C 1108.489 445, 1108.395 444.363, 1105.894 440.851 C 1103.951 438.122, 1103.912 437.755, 1105.394 436.118 C 1109.396 431.694, 1105.935 427, 1098.671 427 L 1094 427 1094 436 M 1108 427.850 C 1108 428.317, 1109.350 430.564, 1111 432.841 C 1113.146 435.803, 1114 438.124, 1114 440.991 C 1114 443.888, 1114.416 445, 1115.500 445 C 1116.547 445, 1117 443.945, 1117 441.502 C 1117 439.100, 1118.096 436.480, 1120.500 433.133 C 1124.405 427.698, 1124.638 427, 1122.551 427 C 1121.754 427, 1119.891 428.587, 1118.412 430.527 L 1115.721 434.054 1113.325 430.527 C 1111.149 427.325, 1108 425.742, 1108 427.850 M 1126.923 429.923 C 1120.002 436.844, 1126.450 447.451, 1136.440 445.577 C 1144.035 444.152, 1146.745 434.488, 1140.923 429.589 C 1136.510 425.876, 1130.835 426.011, 1126.923 429.923 M 1145 436 C 1145 443.208, 1145.290 445, 1146.454 445 C 1147.554 445, 1147.981 443.355, 1148.204 438.263 L 1148.500 431.526 1153.301 438.263 C 1156.415 442.633, 1158.786 445, 1160.051 445 C 1161.839 445, 1162 444.256, 1162 436 C 1162 428.792, 1161.710 427, 1160.546 427 C 1159.449 427, 1159.019 428.632, 1158.796 433.635 L 1158.500 440.271 1154 433.659 C 1150.719 428.839, 1148.891 427.041, 1147.250 427.024 C 1145.082 427.001, 1145 427.326, 1145 436 M 1164 435.952 L 1164 445 1171 445.150 C 1174.850 445.233, 1178.556 445.345, 1179.236 445.400 C 1179.916 445.455, 1180.613 444.771, 1180.785 443.880 C 1181.056 442.473, 1180.169 442.326, 1174.048 442.764 L 1167 443.269 1167 440.134 C 1167 437.086, 1167.124 437, 1171.500 437 C 1173.975 437, 1176 436.550, 1176 436 C 1176 435.450, 1173.975 435, 1171.500 435 C 1167.394 435, 1167 434.786, 1167 432.555 C 1167 430.347, 1167.461 430.080, 1171.750 429.805 C 1178.627 429.363, 1177.583 427.552, 1170.250 427.202 L 1164 426.905 1164 435.952 M 286 436.500 C 286 442.402, 286.190 443, 288.066 443 C 289.202 443, 291.114 442.483, 292.316 441.850 C 298.890 438.390, 296.386 430, 288.777 430 C 286.026 430, 286 430.060, 286 436.500 M 426.223 431.557 C 421.649 434.760, 424.761 443, 430.545 443 C 433.279 443, 438 438.998, 438 436.680 C 438 435.904, 437.067 434.084, 435.927 432.635 C 433.542 429.603, 429.632 429.168, 426.223 431.557 M 445 432.500 C 445 434.587, 445.475 435, 447.878 435 C 451.381 435, 453.511 432.911, 451.776 431.176 C 451.129 430.529, 449.340 430, 447.800 430 C 445.480 430, 445 430.429, 445 432.500 M 511 432.500 C 511 434.861, 511.329 435.095, 514.250 434.813 C 516.729 434.574, 517.500 434.025, 517.500 432.500 C 517.500 430.975, 516.729 430.426, 514.250 430.187 C 511.329 429.905, 511 430.139, 511 432.500 M 579.174 432.314 C 576.352 435.318, 576.427 437.518, 579.455 440.545 C 582.535 443.626, 586.014 443.678, 588.826 440.686 C 591.538 437.798, 591.602 434.602, 589 432 C 586.302 429.302, 581.871 429.444, 579.174 432.314 M 666 436.500 C 666 442.668, 666.121 443, 668.365 443 C 671.742 443, 676 439.334, 676 436.427 C 676 433.098, 672.626 430, 669 430 L 666 430 666 436.500 M 813 436.500 L 813 443 816.045 443 C 819.362 443, 824 439.210, 824 436.500 C 824 433.790, 819.362 430, 816.045 430 L 813 430 813 436.500 M 943 432.500 C 943 434.571, 943.480 435, 945.800 435 C 947.340 435, 949.105 434.495, 949.722 433.878 C 951.652 431.948, 949.979 430, 946.393 430 C 943.440 430, 943 430.325, 943 432.500 M 1009.073 432.635 C 1006.387 436.049, 1006.460 437.551, 1009.455 440.545 C 1014.013 445.104, 1021 442.388, 1021 436.057 C 1021 430.156, 1012.859 427.821, 1009.073 432.635 M 1029 432.500 C 1029 434.861, 1029.329 435.095, 1032.250 434.813 C 1034.729 434.574, 1035.500 434.025, 1035.500 432.500 C 1035.500 430.975, 1034.729 430.426, 1032.250 430.187 C 1029.329 429.905, 1029 430.139, 1029 432.500 M 1097 432.500 C 1097 434.861, 1097.329 435.095, 1100.250 434.813 C 1102.729 434.574, 1103.500 434.025, 1103.500 432.500 C 1103.500 430.975, 1102.729 430.426, 1100.250 430.187 C 1097.329 429.905, 1097 430.139, 1097 432.500 M 1129.174 432.314 C 1127.978 433.587, 1127 435.408, 1127 436.360 C 1127 438.946, 1131.552 443, 1134.455 443 C 1137.704 443, 1141 439.727, 1141 436.500 C 1141 430.630, 1133.313 427.909, 1129.174 432.314 M 341.730 433.750 C 341.453 434.712, 340.903 436.288, 340.506 437.250 C 339.908 438.703, 340.331 439, 343 439 C 345.669 439, 346.092 438.703, 345.494 437.250 C 345.097 436.288, 344.547 434.712, 344.270 433.750 C 343.993 432.788, 343.422 432, 343 432 C 342.578 432, 342.007 432.788, 341.730 433.750 M 543.614 434.779 C 541.478 438.910, 541.509 439, 545.067 439 C 547.786 439, 548.056 438.744, 547.446 436.750 C 545.945 431.842, 545.304 431.512, 543.614 434.779 M 650.701 435.500 L 649.032 439 652.516 439 C 654.432 439, 656 438.753, 656 438.450 C 656 437.728, 653.033 432, 652.660 432 C 652.501 432, 651.619 433.575, 650.701 435.500 M 723.681 435.543 L 722.032 439 725.464 439 C 728.843 439, 728.880 438.954, 727.850 435.998 C 726.355 431.712, 725.550 431.624, 723.681 435.543 M 780.161 434.547 C 778.431 438.342, 778.703 439, 782 439 C 783.650 439, 785 438.753, 785 438.450 C 785 437.700, 782.026 432, 781.635 432 C 781.462 432, 780.799 433.146, 780.161 434.547 M 843.619 434.771 C 841.481 438.903, 841.513 439, 845 439 C 848.300 439, 848.672 437.841, 846.583 434.070 L 845.237 431.641 843.619 434.771 M 943 440.060 C 943 442.984, 943.167 443.107, 946.742 442.810 C 953.160 442.278, 952.266 437.052, 945.750 437.015 C 943.346 437.002, 943 437.385, 943 440.060" stroke="none" fill="#4caf50" fill-rule="evenodd"/>
</svg>